HIERARCHY
ROOT Hips
{
	OFFSET 0.00000 0.00000 0.00000
	CHANNELS 6 Xposition Yposition Zposition Zrotation Yrotation Xrotation 
	JOINT LHipJoint
	{
		OFFSET 0 0 0
		CHANNELS 3 Zrotation Yrotation Xrotation
		JOINT LeftUpLeg
		{
			OFFSET 1.64549 -1.70879 0.84566
			CHANNELS 3 Zrotation Yrotation Xrotation
			JOINT LeftLeg
			{
				OFFSET 2.24963 -6.18082 0.00000
				CHANNELS 3 Zrotation Yrotation Xrotation
				JOINT LeftFoot
				{
					OFFSET 2.71775 -7.46697 0.00000
					CHANNELS 3 Zrotation Yrotation Xrotation
					JOINT LeftToeBase
					{
						OFFSET 0.18768 -0.51564 2.24737
						CHANNELS 3 Zrotation Yrotation Xrotation
						End Site
						{
							OFFSET 0.00000 -0.00000 1.15935
						}
					}
				}
			}
		}
	}
	JOINT RHipJoint
	{
		OFFSET 0 0 0
		CHANNELS 3 Zrotation Yrotation Xrotation
		JOINT RightUpLeg
		{
			OFFSET -1.58830 -1.70879 0.84566
			CHANNELS 3 Zrotation Yrotation Xrotation
			JOINT RightLeg
			{
				OFFSET -2.25006 -6.18201 0.00000
				CHANNELS 3 Zrotation Yrotation Xrotation
				JOINT RightFoot
				{
					OFFSET -2.72829 -7.49593 0.00000
					CHANNELS 3 Zrotation Yrotation Xrotation
					JOINT RightToeBase
					{
						OFFSET -0.21541 -0.59185 2.10643
						CHANNELS 3 Zrotation Yrotation Xrotation
						End Site
						{
							OFFSET -0.00000 -0.00000 1.09838
						}
					}
				}
			}
		}
	}
	JOINT LowerBack
	{
		OFFSET 0 0 0
		CHANNELS 3 Zrotation Yrotation Xrotation
		JOINT Spine
		{
			OFFSET 0.03142 2.10496 -0.11038
			CHANNELS 3 Zrotation Yrotation Xrotation
			JOINT Spine1
			{
				OFFSET -0.01863 2.10897 -0.06956
				CHANNELS 3 Zrotation Yrotation Xrotation
				JOINT Neck
				{
					OFFSET 0 0 0
					CHANNELS 3 Zrotation Yrotation Xrotation
					JOINT Neck1
					{
						OFFSET -0.02267 1.73238 0.00451
						CHANNELS 3 Zrotation Yrotation Xrotation
						JOINT Head
						{
							OFFSET -0.05808 1.54724 -0.61749
							CHANNELS 3 Zrotation Yrotation Xrotation
							End Site
							{
								OFFSET -0.01396 1.71468 -0.21082
							}
						}
					}
				}
				JOINT LeftShoulder
				{
					OFFSET 0 0 0
					CHANNELS 3 Zrotation Yrotation Xrotation
					JOINT LeftArm
					{
						OFFSET 3.44898 0.50298 0.21920
						CHANNELS 3 Zrotation Yrotation Xrotation
						JOINT LeftForeArm
						{
							OFFSET 5.41917 -0.00000 -0.00000
							CHANNELS 3 Zrotation Yrotation Xrotation
							JOINT LeftHand
							{
								OFFSET 2.44373 -0.00000 0.00000
								CHANNELS 3 Zrotation Yrotation Xrotation
								JOINT LeftFingerBase
								{
									OFFSET 0 0 0
									CHANNELS 3 Zrotation Yrotation Xrotation
									JOINT LeftHandIndex1
									{
										OFFSET 0.72750 -0.00000 0.00000
										CHANNELS 3 Zrotation Yrotation Xrotation
										End Site
										{
											OFFSET 0.58653 -0.00000 0.00000
										}
									}
								}
								JOINT LThumb
								{
									OFFSET 0 0 0
									CHANNELS 3 Zrotation Yrotation Xrotation
									End Site
									{
										OFFSET 0.59549 -0.00000 0.59549
									}
								}
							}
						}
					}
				}
				JOINT RightShoulder
				{
					OFFSET 0 0 0
					CHANNELS 3 Zrotation Yrotation Xrotation
					JOINT RightArm
					{
						OFFSET -3.23015 0.55830 0.31051
						CHANNELS 3 Zrotation Yrotation Xrotation
						JOINT RightForeArm
						{
							OFFSET -5.58976 -0.00010 0.00014
							CHANNELS 3 Zrotation Yrotation Xrotation
							JOINT RightHand
							{
								OFFSET -2.48060 -0.00000 0.00000
								CHANNELS 3 Zrotation Yrotation Xrotation
								JOINT RightFingerBase
								{
									OFFSET 0 0 0
									CHANNELS 3 Zrotation Yrotation Xrotation
									JOINT RightHandIndex1
									{
										OFFSET -0.81601 -0.00000 0.00000
										CHANNELS 3 Zrotation Yrotation Xrotation
										End Site
										{
											OFFSET -0.65789 -0.00000 0.00000
										}
									}
								}
								JOINT RThumb
								{
									OFFSET 0 0 0
									CHANNELS 3 Zrotation Yrotation Xrotation
									End Site
									{
										OFFSET -0.66793 -0.00000 0.66793
									}
								}
							}
						}
					}
				}
			}
		}
	}
}
MOTION
Frames: 15
Frame Time: .0083333
0.9208 16.4000 0.7602 179.6610 -23.3171 -153.9280 0.0000 0.0000 0.0000 -1.1890 -24.3727 -67.7105 4.0916 12.2813 36.7346 2.9265 8.3205 -36.0185 3.0453 10.7680 31.5014 0.0000 0.0000 0.0000 29.2648 17.0333 -27.6336 -3.1734 -10.9706 32.1807 -3.8145 -14.0465 -43.5226 -1.8262 -8.4943 24.2259 3.4333 3.5156 6.1640 0.7430 5.0097 -3.3965 -1.7252 2.2968 -6.7821 -5.1094 -0.4542 -12.9788 5.1990 -7.0918 43.4378 1.6037 -4.3775 19.2219 -0.0000 -0.0000 0.0000 -36.5337 35.6982 -39.7950 9.9660 -16.6864 -1.4652 -0.0000 -0.0000 36.6665 -9.2127 30.8680 -4.7569 -7.1250 0.0000 -0.0000 -42.9282 55.4284 -12.6762 -0.0000 -0.0000 0.0000 43.7603 -18.2261 -87.6261 -8.8140 14.8636 -1.1519 0.0000 0.0000 13.4472 -24.1913 15.8306 -6.9867 7.1250 -0.0000 -0.0000 2.3422 -12.7229 1.7704
0.8916 16.3930 0.6660 179.9900 -22.0573 -154.5410 0.0000 0.0000 0.0000 -1.7919 -23.5241 -68.1671 4.0765 12.2615 36.6634 2.9051 7.1216 -35.2708 3.7343 11.7982 35.0217 0.0000 0.0000 0.0000 29.5132 17.7132 -26.0404 -3.0890 -10.8377 31.7344 -3.7268 -14.3334 -43.3248 -1.7576 -8.3417 23.7569 3.3141 3.8501 6.0520 0.7373 5.4378 -3.1535 -1.6927 2.5259 -6.4484 -4.8818 -0.4421 -12.7641 5.0693 -7.0716 43.2870 1.5062 -4.3529 19.0407 0.0000 -0.0000 0.0000 -36.6853 35.7715 -39.4899 9.8579 -16.5170 -1.4343 -0.0000 -0.0000 37.1797 -9.0746 30.7859 -4.6735 -7.1250 0.0000 -0.0000 -42.7305 55.3936 -12.5614 0.0000 -0.0000 0.0000 43.7871 -18.7156 -89.3823 -8.6460 14.5944 -1.1092 0.0000 0.0000 15.2878 -22.7050 16.0833 -6.6119 7.1250 -0.0000 -0.0000 3.3543 -12.6460 2.5431
0.8660 16.3651 0.5843 180.6410 -20.7442 -155.1570 0.0000 0.0000 0.0000 -1.9858 -22.5123 -68.9778 4.0567 12.2354 36.5700 2.7562 6.9725 -34.3916 4.1685 12.3813 37.0945 0.0000 0.0000 0.0000 30.1060 18.4083 -24.5983 -2.9966 -10.6896 31.2400 -3.5226 -14.7455 -42.7068 -1.6489 -8.0928 22.9963 3.5377 4.1926 6.2721 0.6981 5.9232 -3.1726 -1.9261 2.7500 -6.5461 -4.7485 -0.3425 -12.5711 5.0775 -7.0525 43.3670 1.4877 -4.3488 19.0303 0.0000 0.0000 0.0000 -36.4631 36.2578 -37.6288 9.8013 -16.4281 -1.4182 -0.0000 -0.0000 36.7217 -9.0715 31.0245 -4.7044 -7.1250 0.0000 -0.0000 -42.9464 55.5759 -12.8482 0.0000 0.0000 0.0000 43.9419 -19.2357 -90.7164 -8.5646 14.4638 -1.0888 0.0000 0.0000 16.5669 -21.2573 16.1615 -6.1801 7.1250 -0.0000 -0.0000 4.3271 -12.7432 3.2756
0.8234 16.3359 0.5084 181.3180 -19.5503 -155.6930 0.0000 0.0000 0.0000 -2.1008 -21.6592 -69.8440 4.0176 12.1838 36.3854 2.6583 6.4048 -33.5578 4.7717 13.1220 39.8269 0.0000 0.0000 0.0000 30.7551 18.4731 -23.4510 -2.9208 -10.5657 30.8289 -3.2969 -14.8458 -41.7808 -1.4834 -7.6952 21.7920 4.2053 4.4585 6.5427 0.5138 6.3459 -3.3038 -2.5575 2.9148 -6.7283 -4.5967 -0.1680 -12.3132 5.2910 -7.0747 43.5241 1.5557 -4.3463 19.0698 -0.0000 -0.0000 0.0000 -35.8926 37.0263 -34.3474 9.9011 -16.5848 -1.4466 -0.0000 -0.0000 36.0666 -10.1385 31.1861 -5.2903 -7.1250 0.0000 -0.0000 -44.0426 55.4833 -13.1728 -0.0000 -0.0000 0.0000 44.3871 -19.8836 -91.2107 -8.5222 14.3957 -1.0782 0.0000 0.0000 17.3994 -19.5078 15.7993 -5.5095 7.1250 -0.0000 -0.0000 5.4814 -13.3265 4.0895
0.7845 16.3328 0.4135 181.7180 -18.8572 -156.2820 0.0000 0.0000 0.0000 -2.3716 -21.2664 -70.1691 3.9923 12.1502 36.2654 2.3213 7.2967 -32.1020 4.8838 13.2518 40.3184 0.0000 0.0000 0.0000 31.3381 18.2132 -22.1033 -2.8420 -10.4348 30.3965 -3.2307 -14.7503 -41.4215 -1.4037 -7.4944 21.1885 4.3514 4.6102 6.2649 0.7643 6.5449 -3.0151 -2.3560 3.0289 -6.2623 -4.6783 -0.1157 -12.2798 5.0722 -6.8888 43.5687 1.4996 -4.3214 19.0585 -0.0000 -0.0000 0.0000 -36.2746 37.1844 -33.0547 9.9028 -16.5873 -1.4471 -0.0000 -0.0000 37.6827 -11.6029 30.8825 -6.0161 -7.1250 0.0000 -0.0000 -45.0468 54.9637 -12.9567 -0.0000 -0.0000 0.0000 44.3301 -20.3987 -90.8654 -8.5069 14.3711 -1.0744 0.0000 0.0000 17.2287 -17.4163 14.9184 -4.6171 7.1250 -0.0000 -0.0000 6.8622 -14.4574 4.9681
0.7474 16.3151 0.3172 182.1720 -18.0616 -156.6860 0.0000 0.0000 0.0000 -2.4959 -20.7952 -70.8841 3.9906 12.1479 36.2572 1.9956 8.4069 -30.7933 4.9105 13.2823 40.4345 0.0000 0.0000 0.0000 31.8916 17.9415 -21.0015 -2.7523 -10.2829 29.8979 -3.0871 -14.7875 -40.7955 -1.2585 -7.1115 20.0461 4.9692 4.8228 6.0205 0.6006 6.8537 -2.8661 -2.8572 3.1698 -5.8549 -4.3981 -0.1064 -12.2784 4.9191 -6.8540 43.4798 1.3813 -4.2763 18.9751 -0.0000 0.0000 0.0000 -35.8214 37.0786 -32.0037 9.7031 -16.2738 -1.3906 -0.0000 -0.0000 39.7290 -12.6642 30.3365 -6.4749 -7.1250 0.0000 -0.0000 -45.4688 54.3494 -12.3768 -0.0000 0.0000 0.0000 45.0230 -21.1252 -90.0758 -8.5358 14.4176 -1.0816 0.0000 0.0000 16.3631 -15.2850 13.5533 -3.6645 7.1250 -0.0000 -0.0000 8.2966 -16.0449 5.7415
0.7074 16.2953 0.2177 182.4760 -17.2334 -157.0870 0.0000 0.0000 0.0000 -2.7851 -20.3834 -71.5802 3.9918 12.1495 36.2629 1.6654 9.8102 -29.6275 4.8884 13.2570 40.3384 0.0000 0.0000 0.0000 32.2585 17.6781 -19.8977 -2.6625 -10.1276 29.3910 -2.9491 -14.9827 -40.2942 -1.0960 -6.6528 18.6907 5.3466 4.9612 5.9031 0.5022 7.0544 -2.7852 -3.1637 3.2624 -5.6308 -3.9463 0.0026 -12.0411 4.7311 -6.8247 43.5313 1.2131 -4.2382 18.9075 0.0000 0.0000 0.0000 -35.4186 37.3249 -30.1495 9.4820 -15.9253 -1.3293 -0.0000 -0.0000 40.7835 -13.3909 29.9864 -6.7854 -7.1250 0.0000 -0.0000 -45.7786 53.9494 -11.9997 0.0000 0.0000 0.0000 45.1352 -21.6407 -91.0994 -8.4126 14.2195 -1.0512 0.0000 0.0000 17.8857 -12.9622 12.3658 -2.8219 7.1250 -0.0000 -0.0000 9.9070 -17.4148 6.5876
0.6755 16.3054 0.1158 182.6540 -16.4328 -157.4940 0.0000 0.0000 0.0000 -3.2254 -19.8946 -71.8739 4.0008 12.1615 36.3056 1.0018 12.7513 -27.4264 4.4503 12.7367 38.3905 0.0000 0.0000 0.0000 32.4884 17.6419 -18.7111 -2.5854 -9.9916 28.9496 -2.9744 -14.7446 -40.2466 -1.2554 -7.1031 20.0212 5.4332 5.0526 5.8380 0.5019 7.1760 -2.7197 -3.2098 3.3251 -5.5038 -3.5365 0.2084 -11.9368 4.4170 -6.6669 43.8646 1.0086 -4.1850 19.0434 0.0000 -0.0000 0.0000 -35.0750 37.6906 -28.3891 9.2260 -15.5198 -1.2599 -0.0000 -0.0000 41.8109 -14.1640 29.6592 -7.1184 -7.1250 0.0000 -0.0000 -46.1468 53.5601 -11.6459 0.0000 -0.0000 0.0000 44.9364 -22.1901 -92.3196 -8.2578 13.9700 -1.0135 0.0000 0.0000 20.0171 -10.0495 11.3297 -1.9940 7.1250 -0.0000 -0.0000 11.9610 -18.6134 7.6866
0.6432 16.2807 0.0138 183.1430 -15.7658 -157.9480 0.0000 0.0000 0.0000 -3.3102 -19.4566 -72.3000 3.9801 12.1339 36.2075 0.8017 13.1859 -26.3342 4.8012 13.1563 39.9566 0.0000 0.0000 0.0000 33.1100 17.6852 -17.5415 -2.5287 -9.8899 28.6210 -3.0257 -14.4459 -40.2798 -1.5527 -7.8645 22.3033 5.7677 5.1976 5.7057 0.6348 7.3811 -2.6014 -3.2479 3.4246 -5.2629 -3.3566 0.3176 -11.9727 4.2741 -6.6180 44.1277 0.9068 -4.1767 19.2061 0.0000 0.0000 0.0000 -34.7250 37.7640 -27.3132 8.9491 -15.0793 -1.1869 -0.0000 -0.0000 43.2726 -15.0342 29.5626 -7.5485 -7.1250 0.0000 -0.0000 -46.7972 53.3255 -11.5760 0.0000 0.0000 0.0000 44.5551 -22.7008 -95.2175 -8.0589 13.6482 -0.9660 0.0000 0.0000 24.3079 -6.1277 10.8571 -1.1585 7.1250 -0.0000 -0.0000 14.7072 -19.2378 9.3513
0.6196 16.2511 -0.0933 183.4510 -15.0875 -158.2920 0.0000 0.0000 0.0000 -3.5520 -19.0735 -72.7252 3.9634 12.1116 36.1279 0.6016 13.9601 -25.5453 4.9037 13.2745 40.4050 0.0000 0.0000 0.0000 33.6100 17.8140 -16.3834 -2.4779 -9.7976 28.3237 -2.9950 -14.6557 -40.2808 -1.6954 -8.2005 23.3246 5.7795 5.3554 5.5827 0.7193 7.5819 -2.5676 -3.1664 3.5279 -5.1490 -3.2513 0.3680 -11.7384 4.3697 -6.7080 44.1678 0.9155 -4.2085 19.1755 -0.0000 0.0000 0.0000 -34.2346 37.7545 -26.5348 8.7487 -14.7590 -1.1352 -0.0000 -0.0000 45.1011 -16.3639 29.4554 -8.2163 -7.1250 0.0000 -0.0000 -47.8153 52.9993 -11.5050 -0.0000 0.0000 0.0000 44.0225 -23.2092 -99.1470 -7.8365 13.2876 -0.9142 0.0000 0.0000 30.4480 -1.8618 10.2779 -0.3323 7.1250 -0.0000 -0.0000 17.6915 -19.9033 11.1503
0.5928 16.2283 -0.2029 183.4560 -14.4481 -158.6160 0.0000 0.0000 0.0000 -4.1638 -18.8732 -72.9143 3.9382 12.0778 36.0076 0.5414 14.2945 -25.4178 5.0311 13.4187 40.9569 0.0000 0.0000 0.0000 33.8017 17.8653 -15.2322 -2.4439 -9.7351 28.1232 -2.9197 -15.0078 -40.1754 -1.8380 -8.5202 24.3056 5.6275 5.4161 5.5794 0.7229 7.6521 -2.5718 -3.0860 3.5679 -5.1647 -3.2740 0.4823 -11.3976 4.6264 -6.7583 44.2111 1.0337 -4.2369 19.1300 0.0000 -0.0000 0.0000 -33.7210 37.9419 -25.4209 8.6284 -14.5663 -1.1048 -0.0000 -0.0000 46.4256 -17.6726 29.3729 -8.8822 -7.1250 0.0000 -0.0000 -48.8232 52.6975 -11.4471 0.0000 -0.0000 0.0000 43.6461 -23.8544 -98.6198 -7.7042 13.0723 -0.8840 0.0000 0.0000 33.0868 1.9530 8.5766 0.2914 7.1250 -0.0000 -0.0000 20.5055 -21.5395 12.3416
0.5589 16.2132 -0.3184 183.2080 -13.8218 -158.7370 0.0000 0.0000 0.0000 -5.0560 -18.8154 -73.0148 3.8705 11.9861 35.6828 0.3712 15.1910 -25.0266 5.0085 13.3934 40.8594 0.0000 0.0000 0.0000 33.6271 17.6134 -14.5227 -2.4441 -9.7355 28.1243 -2.8259 -15.2761 -39.9270 -1.9268 -8.7119 24.8982 5.2374 5.4294 5.1876 0.7704 7.6122 -2.4657 -2.7742 3.5762 -4.8892 -3.4162 0.6043 -11.2369 4.6718 -6.6151 44.2637 1.1066 -4.2224 19.1148 0.0000 0.0000 0.0000 -33.5512 38.1121 -25.1647 8.4394 -14.2626 -1.0577 -0.0000 -0.0000 48.3831 -19.0187 28.9962 -9.4860 -7.1250 0.0000 -0.0000 -49.5850 52.1795 -10.9857 0.0000 0.0000 0.0000 43.0689 -24.3708 -96.5365 -7.5794 12.8688 -0.8560 0.0000 0.0000 34.8790 6.0587 6.9182 0.7325 7.1250 -0.0000 -0.0000 23.5529 -23.0303 13.6167
0.5318 16.2161 -0.4373 183.1800 -13.1345 -158.8260 0.0000 0.0000 0.0000 -5.7411 -18.5091 -72.9985 3.8170 11.9128 35.4243 0.0579 16.6613 -24.1558 4.6578 12.9877 39.3226 0.0000 0.0000 0.0000 33.6456 17.4114 -14.0254 -2.4535 -9.7528 28.1799 -2.8701 -15.3273 -40.1703 -1.7206 -8.2581 23.5007 4.9201 5.4988 4.6412 0.8618 7.6438 -2.3394 -2.4434 3.6194 -4.4972 -2.4840 0.5987 -10.7853 3.6443 -6.3475 43.9477 0.5067 -4.0922 18.6616 -0.0000 -0.0000 0.0000 -33.2167 38.0533 -25.9337 8.1430 -13.7844 -0.9859 -0.0000 -0.0000 51.4533 -20.5387 28.4172 -10.1092 -7.1250 0.0000 -0.0000 -50.2917 51.4904 -10.2257 -0.0000 -0.0000 0.0000 42.2618 -24.7891 -96.5629 -7.3923 12.5631 -0.8148 0.0000 0.0000 39.4632 10.6073 5.5117 1.0305 7.1250 -0.0000 -0.0000 26.8567 -24.1642 15.1864
0.5029 16.1842 -0.5594 183.2300 -12.4385 -159.1000 0.0000 0.0000 0.0000 -6.4678 -18.3104 -72.9462 3.7329 11.7962 35.0146 0.7007 14.1306 -26.5119 5.5788 14.0074 43.2669 0.0000 0.0000 0.0000 33.8377 17.5222 -13.2310 -2.4800 -9.8015 28.3362 -2.6467 -16.1883 -39.7541 -1.3868 -7.4511 21.0590 4.6818 5.5473 4.3533 0.9335 7.6703 -2.1177 -2.1976 3.6568 -4.1407 -2.2472 0.6942 -11.0141 3.5321 -6.2774 44.0980 0.4117 -4.0443 18.8032 -0.0000 0.0000 0.0000 -32.8235 37.9991 -26.6192 7.9967 -13.5476 -0.9514 -0.0000 -0.0000 54.2534 -22.5145 28.0968 -11.0463 -7.1250 0.0000 -0.0000 -51.5550 50.9130 -9.7523 -0.0000 0.0000 0.0000 41.4082 -24.8912 -96.9858 -7.2046 12.2555 -0.7745 0.0000 0.0000 45.2270 15.5382 4.3108 1.1973 7.1250 -0.0000 -0.0000 30.3067 -24.9603 17.1080
0.4716 16.1518 -0.6843 183.3770 -11.8799 -159.2560 0.0000 0.0000 0.0000 -6.9350 -18.0951 -73.0098 3.6916 11.7382 34.8122 1.1696 12.2992 -28.2267 6.1091 14.5332 45.4179 0.0000 0.0000 0.0000 34.0716 17.0378 -12.6436 -2.4960 -9.8306 28.4297 -2.6906 -15.6707 -39.5757 -1.4328 -7.5685 21.4109 4.6189 5.5299 4.0414 1.0226 7.6203 -2.0178 -2.0292 3.6431 -3.8840 -2.2761 0.9114 -11.2995 3.7388 -6.1969 44.4848 0.5100 -4.0153 19.1471 -0.0000 -0.0000 0.0000 -32.2750 38.2661 -26.0290 7.9594 -13.4870 -0.9426 -0.0000 -0.0000 55.6281 -24.3954 28.0634 -12.0440 -7.1250 0.0000 -0.0000 -52.9561 50.5605 -9.6228 -0.0000 -0.0000 0.0000 40.5600 -25.1394 -94.2530 -7.0074 11.9315 -0.7332 0.0000 0.0000 48.7486 20.5726 3.3989 1.2747 7.1250 -0.0000 -0.0000 33.6068 -25.3273 19.4253
